<?xml version="1.0" encoding="UTF-8"?>
<svg id="Layer_1" data-name="Layer 1" xmlns="http://www.w3.org/2000/svg" viewBox="0 0 231.3 223.72">
  <polygon points="106 104.77 114.82 104.77 127.38 116.27 114.82 127.77 106 127.77 106 104.77"/>
  <path d="M231.3,93.45c0-20.77-16.02-35.68-42.5-35.68l-65.8-.12v31.1l22.59,26.85-22.59,26.87v81.24l37-34.23v-60.72h16.11l19.3,40h30.96l-20.61-42.02c15.86-4.92,25.53-17.28,25.53-33.3h0Zm-43.67,12.33h-27.63v-27h27.63c10.54,0,16.93,5.59,16.93,13.26,0,8.31-6.39,13.74-16.93,13.74Z"/>
  <polygon points="92 144.77 92 137.53 92 85.77 98.5 85.77 114 85.77 114 56.65 114 33.46 77 0 77 56.65 77 123.25 26.45 56.77 0 56.77 0 168.77 25 168.77 25 100.77 74.69 168.77 115 168.77 115 144.77 98.97 144.77 92 144.77"/>
</svg>